<?xml version="1.0" encoding="UTF-8"?>
<!DOCTYPE svg PUBLIC "-//W3C//DTD SVG 1.1//EN" "http://www.w3.org/Graphics/SVG/1.1/DTD/svg11.dtd">
<svg xmlns="http://www.w3.org/2000/svg" xmlns:xlink="http://www.w3.org/1999/xlink" width="674px" height="379px" version="1.1" style="background-color: rgb(255, 255, 255);"><defs><linearGradient x1="0%" y1="0%" x2="0%" y2="100%" id="mx-gradient-fff2cc-1-ffd966-1-s-0"><stop offset="0%" style="stop-color:#FFF2CC"/><stop offset="100%" style="stop-color:#FFD966"/></linearGradient><linearGradient x1="0%" y1="0%" x2="0%" y2="100%" id="mx-gradient-dae8fc-1-7ea6e0-1-s-0"><stop offset="0%" style="stop-color:#DAE8FC"/><stop offset="100%" style="stop-color:#7EA6E0"/></linearGradient><linearGradient x1="0%" y1="0%" x2="0%" y2="100%" id="mx-gradient-e1d5e7-1-8c6c9c-1-s-0"><stop offset="0%" style="stop-color:#E1D5E7"/><stop offset="100%" style="stop-color:#8C6C9C"/></linearGradient></defs><g transform="translate(0.5,0.5)"><path d="M 122 167 L 144.5 167 Q 154.5 167 164.5 167 L 180.63 167" fill="none" stroke="#000000" stroke-miterlimit="10" pointer-events="none"/><path d="M 185.88 167 L 178.88 170.5 L 180.63 167 L 178.88 163.5 Z" fill="#000000" stroke="#000000" stroke-miterlimit="10" pointer-events="none"/><g fill="#000000" font-family="Helvetica" text-anchor="middle" font-size="12px"><rect fill="#ffffff" stroke="none" x="125" y="151" width="17" height="15" stroke-width="0"/><text x="132.5" y="161.5">No</text></g><path d="M 62 227 L 62 262 Q 62 272 62 282 L 62 310.63" fill="none" stroke="#000000" stroke-miterlimit="10" pointer-events="none"/><path d="M 62 315.88 L 58.5 308.88 L 62 310.63 L 65.5 308.88 Z" fill="#000000" stroke="#000000" stroke-miterlimit="10" pointer-events="none"/><g fill="#000000" font-family="Helvetica" text-anchor="middle" font-size="12px"><rect fill="#ffffff" stroke="none" x="72" y="231" width="23" height="15" stroke-width="0"/><text x="82.5" y="241.5">Yes</text></g><path d="M 247 227 L 247 262 Q 247 272 247 282 L 247 310.63" fill="none" stroke="#000000" stroke-miterlimit="10" pointer-events="none"/><path d="M 247 315.88 L 243.5 308.88 L 247 310.63 L 250.5 308.88 Z" fill="#000000" stroke="#000000" stroke-miterlimit="10" pointer-events="none"/><g fill="#000000" font-family="Helvetica" text-anchor="middle" font-size="12px"><rect fill="#ffffff" stroke="none" x="252" y="231" width="23" height="15" stroke-width="0"/><text x="262.5" y="241.5">Yes</text></g><path d="M 567.92 317 L 626.08 317 C 651.44 317 672 330.43 672 347 C 672 363.57 651.44 377 626.08 377 L 567.92 377 C 542.56 377 522 363.57 522 347 C 522 330.43 542.56 317 567.92 317 Z" fill="url(#mx-gradient-fff2cc-1-ffd966-1-s-0)" stroke="#d6b656" stroke-width="2" stroke-miterlimit="10" pointer-events="none"/><g fill="#000000" font-family="Helvetica" text-anchor="middle" font-size="12px"><text x="596.75" y="350.75">2XX/3XX Response</text></g><path d="M 225.67 317 L 268.33 317 C 286.92 317 302 330.43 302 347 C 302 363.57 286.92 377 268.33 377 L 225.67 377 C 207.08 377 192 363.57 192 347 C 192 330.43 207.08 317 225.67 317 Z" fill="url(#mx-gradient-fff2cc-1-ffd966-1-s-0)" stroke="#d6b656" stroke-width="2" stroke-miterlimit="10" pointer-events="none"/><g fill="#000000" font-family="Helvetica" text-anchor="middle" font-size="12px"><text x="246.75" y="350.75">5XX Response</text></g><path d="M 39.9 317 L 84.1 317 C 103.38 317 119 330.43 119 347 C 119 363.57 103.38 377 84.1 377 L 39.9 377 C 20.62 377 5 363.57 5 347 C 5 330.43 20.62 317 39.9 317 Z" fill="url(#mx-gradient-fff2cc-1-ffd966-1-s-0)" stroke="#d6b656" stroke-width="2" stroke-miterlimit="10" pointer-events="none"/><g fill="#000000" font-family="Helvetica" text-anchor="middle" font-size="12px"><text x="61.75" y="350.75">4XX Response</text></g><path d="M 247 107 L 307 167 L 247 227 L 187 167 Z" fill="url(#mx-gradient-dae8fc-1-7ea6e0-1-s-0)" stroke="#6c8ebf" stroke-width="2" stroke-miterlimit="10" pointer-events="none"/><g fill="#000000" font-family="Helvetica" text-anchor="middle" font-size="12px"><text x="246.75" y="154.25">Is there a</text><text x="246.75" y="168.25">problem</text><text x="246.75" y="182.25">server-side?</text></g><path d="M 62 107 L 122 167 L 62 227 L 2 167 Z" fill="url(#mx-gradient-dae8fc-1-7ea6e0-1-s-0)" stroke="#6c8ebf" stroke-width="2" stroke-miterlimit="10" pointer-events="none"/><g fill="#000000" font-family="Helvetica" text-anchor="middle" font-size="12px"><text x="61.75" y="152.25">Is there a</text><text x="61.75" y="166.25">problem with</text><text x="61.75" y="180.25">the request?</text></g><path d="M 432 107 L 487 167 L 432 227 L 377 167 Z" fill="url(#mx-gradient-dae8fc-1-7ea6e0-1-s-0)" stroke="#6c8ebf" stroke-width="2" stroke-miterlimit="10" pointer-events="none"/><g fill="#000000" font-family="Helvetica" text-anchor="middle" font-size="12px"><text x="431.75" y="148.25">Am I</text><text x="431.75" y="162.25">implementing</text><text x="431.75" y="176.25">a web</text><text x="431.75" y="190.25">sever?</text></g><path d="M 410.67 317 L 453.33 317 C 471.92 317 487 330.43 487 347 C 487 363.57 471.92 377 453.33 377 L 410.67 377 C 392.08 377 377 363.57 377 347 C 377 330.43 392.08 317 410.67 317 Z" fill="url(#mx-gradient-e1d5e7-1-8c6c9c-1-s-0)" stroke="#9673a6" stroke-width="2" stroke-miterlimit="10" pointer-events="none"/><g fill="#000000" font-family="Helvetica" text-anchor="middle" font-size="12px"><text x="431.75" y="350.75">1XX Response</text></g><path d="M 432 227 L 432 262 Q 432 272 432 282 L 432 310.63" fill="none" stroke="#000000" stroke-miterlimit="10" pointer-events="none"/><path d="M 432 315.88 L 428.5 308.88 L 432 310.63 L 435.5 308.88 Z" fill="#000000" stroke="#000000" stroke-miterlimit="10" pointer-events="none"/><path d="M 432 227 L 432 277 Q 432 287 442 287 L 587 287 Q 597 287 597 297 L 597 310.63" fill="none" stroke="#000000" stroke-miterlimit="10" pointer-events="none"/><path d="M 597 315.88 L 593.5 308.88 L 597 310.63 L 600.5 308.88 Z" fill="#000000" stroke="#000000" stroke-miterlimit="10" pointer-events="none"/><g fill="#000000" font-family="Helvetica" text-anchor="middle" font-size="12px"><rect fill="#ffffff" stroke="none" x="442" y="231" width="23" height="15" stroke-width="0"/><text x="452.5" y="241.5">Yes</text></g><path d="M 307 167 L 332 167 Q 342 167 352 167 L 370.63 167" fill="none" stroke="#000000" stroke-miterlimit="10" pointer-events="none"/><path d="M 375.88 167 L 368.88 170.5 L 370.63 167 L 368.88 163.5 Z" fill="#000000" stroke="#000000" stroke-miterlimit="10" pointer-events="none"/><g fill="#000000" font-family="Helvetica" text-anchor="middle" font-size="12px"><rect fill="#ffffff" stroke="none" x="315" y="151" width="17" height="15" stroke-width="0"/><text x="322.5" y="161.5">No</text></g><path d="M 487 167 L 587 167 Q 597 167 597 177 L 597 310.63" fill="none" stroke="#000000" stroke-miterlimit="10" pointer-events="none"/><path d="M 597 315.88 L 593.5 308.88 L 597 310.63 L 600.5 308.88 Z" fill="#000000" stroke="#000000" stroke-miterlimit="10" pointer-events="none"/><g fill="#000000" font-family="Helvetica" text-anchor="middle" font-size="12px"><rect fill="#ffffff" stroke="none" x="495" y="151" width="17" height="15" stroke-width="0"/><text x="502.5" y="161.5">No</text></g><path d="M 62 62 L 62 100.63" fill="none" stroke="#000000" stroke-miterlimit="10" pointer-events="none"/><path d="M 62 105.88 L 58.5 98.88 L 62 100.63 L 65.5 98.88 Z" fill="#000000" stroke="#000000" stroke-miterlimit="10" pointer-events="none"/><ellipse cx="62" cy="32" rx="60" ry="30" fill="url(#mx-gradient-dae8fc-1-7ea6e0-1-s-0)" stroke="#6c8ebf" stroke-width="2" pointer-events="none"/><g fill="#000000" font-family="Helvetica" text-anchor="middle" font-size="12px"><text x="61.75" y="28.75">Which response</text><text x="61.75" y="42.75">class?</text></g></g></svg>